<?xml version="1.0" encoding="UTF-8" standalone="no"?>
<!DOCTYPE svg PUBLIC "-//W3C//DTD SVG 1.1//EN"
 "http://www.w3.org/Graphics/SVG/1.1/DTD/svg11.dtd">
<!-- Generated by graphviz version 2.43.0 (0)
 -->
<!-- Title: finite_state_machine Pages: 1 -->
<svg width="483pt" height="155pt"
 viewBox="0.00 0.00 483.00 155.00" xmlns="http://www.w3.org/2000/svg" xmlns:xlink="http://www.w3.org/1999/xlink">
<g id="graph0" class="graph" transform="scale(1 1) rotate(0) translate(4 151)">
<title>finite_state_machine</title>
<polygon fill="white" stroke="transparent" points="-4,4 -4,-151 479,-151 479,4 -4,4"/>
<!-- 4 -->
<g id="node1" class="node">
<title>4</title>
<ellipse fill="none" stroke="black" cx="350.5" cy="-77" rx="18" ry="18"/>
<text text-anchor="middle" x="350.5" y="-73.3" font-family="Times,serif" font-size="14.00">4</text>
</g>
<!-- 5 -->
<g id="node2" class="node">
<title>5</title>
<ellipse fill="none" stroke="black" cx="457" cy="-108" rx="18" ry="18"/>
<text text-anchor="middle" x="457" y="-104.3" font-family="Times,serif" font-size="14.00">5</text>
</g>
<!-- 4&#45;&gt;5 -->
<g id="edge1" class="edge">
<title>4&#45;&gt;5</title>
<path fill="none" stroke="black" d="M368.29,-81.98C384.92,-86.91 410.62,-94.54 429.91,-100.26"/>
<polygon fill="black" stroke="black" points="429.01,-103.65 439.6,-103.13 431,-96.93 429.01,-103.65"/>
<text text-anchor="middle" x="405" y="-100.8" font-family="Times,serif" font-size="14.00">8/14</text>
</g>
<!-- 1 -->
<g id="node3" class="node">
<title>1</title>
<ellipse fill="none" stroke="black" cx="244" cy="-129" rx="18" ry="18"/>
<text text-anchor="middle" x="244" y="-125.3" font-family="Times,serif" font-size="14.00">1</text>
</g>
<!-- 1&#45;&gt;4 -->
<g id="edge3" class="edge">
<title>1&#45;&gt;4</title>
<path fill="none" stroke="black" d="M259.28,-118.75C265.48,-114.53 272.94,-109.75 280,-106 294.08,-98.52 310.51,-91.59 323.86,-86.38"/>
<polygon fill="black" stroke="black" points="325.28,-89.58 333.38,-82.75 322.79,-83.04 325.28,-89.58"/>
<text text-anchor="middle" x="296" y="-109.8" font-family="Times,serif" font-size="14.00">0/1</text>
</g>
<!-- 1&#45;&gt;5 -->
<g id="edge2" class="edge">
<title>1&#45;&gt;5</title>
<path fill="none" stroke="black" d="M262.09,-128.59C293.64,-127.65 363.13,-124.7 421,-116 423.74,-115.59 426.58,-115.08 429.4,-114.52"/>
<polygon fill="black" stroke="black" points="430.34,-117.9 439.36,-112.34 428.85,-111.06 430.34,-117.9"/>
<text text-anchor="middle" x="350.5" y="-128.8" font-family="Times,serif" font-size="14.00">17/21</text>
</g>
<!-- 3 -->
<g id="node4" class="node">
<title>3</title>
<ellipse fill="none" stroke="black" cx="131" cy="-72" rx="18" ry="18"/>
<text text-anchor="middle" x="131" y="-68.3" font-family="Times,serif" font-size="14.00">3</text>
</g>
<!-- 3&#45;&gt;4 -->
<g id="edge6" class="edge">
<title>3&#45;&gt;4</title>
<path fill="none" stroke="black" d="M149.07,-72.39C186.61,-73.26 276.66,-75.33 322.17,-76.37"/>
<polygon fill="black" stroke="black" points="322.13,-79.87 332.21,-76.6 322.29,-72.87 322.13,-79.87"/>
<text text-anchor="middle" x="244" y="-77.8" font-family="Times,serif" font-size="14.00">0/5</text>
</g>
<!-- 3&#45;&gt;1 -->
<g id="edge4" class="edge">
<title>3&#45;&gt;1</title>
<path fill="none" stroke="black" d="M148.08,-78.31C163.71,-84.65 187.97,-95.03 208,-106 212.06,-108.22 216.26,-110.76 220.28,-113.32"/>
<polygon fill="black" stroke="black" points="218.4,-116.27 228.68,-118.84 222.25,-110.42 218.4,-116.27"/>
<text text-anchor="middle" x="187.5" y="-109.8" font-family="Times,serif" font-size="14.00">10/11</text>
</g>
<!-- 2 -->
<g id="node5" class="node">
<title>2</title>
<ellipse fill="none" stroke="black" cx="244" cy="-18" rx="18" ry="18"/>
<text text-anchor="middle" x="244" y="-14.3" font-family="Times,serif" font-size="14.00">2</text>
</g>
<!-- 3&#45;&gt;2 -->
<g id="edge5" class="edge">
<title>3&#45;&gt;2</title>
<path fill="none" stroke="black" d="M144.44,-59.73C150.78,-54.02 158.85,-47.5 167,-43 182.51,-34.43 201.43,-28.19 216.52,-24.09"/>
<polygon fill="black" stroke="black" points="217.44,-27.47 226.26,-21.59 215.7,-20.69 217.44,-27.47"/>
<text text-anchor="middle" x="187.5" y="-46.8" font-family="Times,serif" font-size="14.00">0/2</text>
</g>
<!-- 2&#45;&gt;4 -->
<g id="edge7" class="edge">
<title>2&#45;&gt;4</title>
<path fill="none" stroke="black" d="M261.77,-22.33C275.82,-26.4 296.09,-33.32 312,-43 318.35,-46.87 324.61,-51.9 330.13,-56.89"/>
<polygon fill="black" stroke="black" points="327.98,-59.68 337.63,-64.06 332.81,-54.62 327.98,-59.68"/>
<text text-anchor="middle" x="296" y="-46.8" font-family="Times,serif" font-size="14.00">8/12</text>
</g>
<!-- 0 -->
<g id="node6" class="node">
<title>0</title>
<ellipse fill="none" stroke="black" cx="18" cy="-72" rx="18" ry="18"/>
<text text-anchor="middle" x="18" y="-68.3" font-family="Times,serif" font-size="14.00">0</text>
</g>
<!-- 0&#45;&gt;1 -->
<g id="edge8" class="edge">
<title>0&#45;&gt;1</title>
<path fill="none" stroke="black" d="M33.95,-81.14C40.02,-84.57 47.19,-88.29 54,-91 102.29,-110.2 115.9,-111.59 167,-121 183.01,-123.95 201.14,-125.91 215.67,-127.15"/>
<polygon fill="black" stroke="black" points="215.74,-130.67 225.99,-127.97 216.29,-123.69 215.74,-130.67"/>
<text text-anchor="middle" x="131" y="-120.8" font-family="Times,serif" font-size="14.00">7/7</text>
</g>
<!-- 0&#45;&gt;3 -->
<g id="edge9" class="edge">
<title>0&#45;&gt;3</title>
<path fill="none" stroke="black" d="M36.34,-72C54.1,-72 81.96,-72 102.68,-72"/>
<polygon fill="black" stroke="black" points="102.78,-75.5 112.78,-72 102.78,-68.5 102.78,-75.5"/>
<text text-anchor="middle" x="74.5" y="-75.8" font-family="Times,serif" font-size="14.00">10/10</text>
</g>
<!-- 0&#45;&gt;2 -->
<g id="edge10" class="edge">
<title>0&#45;&gt;2</title>
<path fill="none" stroke="black" d="M34.12,-63.58C52.27,-53.87 83.92,-38.19 113,-30 136.29,-23.44 142.91,-25.35 167,-23 183.05,-21.43 201.05,-20.23 215.5,-19.39"/>
<polygon fill="black" stroke="black" points="215.98,-22.87 225.77,-18.82 215.59,-15.88 215.98,-22.87"/>
<text text-anchor="middle" x="131" y="-33.8" font-family="Times,serif" font-size="14.00">8/8</text>
</g>
</g>
</svg>
