<?xml version="1.0" encoding="UTF-8" standalone="no"?>
<!DOCTYPE svg PUBLIC "-//W3C//DTD SVG 1.1//EN"
 "http://www.w3.org/Graphics/SVG/1.1/DTD/svg11.dtd">
<!-- Generated by graphviz version 2.43.0 (0)
 -->
<!-- Title: finite_state_machine Pages: 1 -->
<svg width="472pt" height="213pt"
 viewBox="0.00 0.00 472.00 213.00" xmlns="http://www.w3.org/2000/svg" xmlns:xlink="http://www.w3.org/1999/xlink">
<g id="graph0" class="graph" transform="scale(1 1) rotate(0) translate(4 209)">
<title>finite_state_machine</title>
<polygon fill="white" stroke="transparent" points="-4,4 -4,-209 468,-209 468,4 -4,4"/>
<!-- 4 -->
<g id="node1" class="node">
<title>4</title>
<ellipse fill="none" stroke="black" cx="18" cy="-103" rx="18" ry="18"/>
<text text-anchor="middle" x="18" y="-99.3" font-family="Times,serif" font-size="14.00">4</text>
</g>
<!-- 5 -->
<g id="node2" class="node">
<title>5</title>
<ellipse fill="none" stroke="black" cx="100" cy="-104" rx="18" ry="18"/>
<text text-anchor="middle" x="100" y="-100.3" font-family="Times,serif" font-size="14.00">5</text>
</g>
<!-- 4&#45;&gt;5 -->
<g id="edge1" class="edge">
<title>4&#45;&gt;5</title>
<path fill="none" stroke="black" d="M36.36,-103.22C46.7,-103.35 60.06,-103.51 71.78,-103.66"/>
<polygon fill="black" stroke="black" points="71.91,-107.16 81.95,-103.79 71.99,-100.16 71.91,-107.16"/>
<text text-anchor="middle" x="59" y="-106.8" font-family="Times,serif" font-size="14.00">6</text>
</g>
<!-- 2 -->
<g id="node3" class="node">
<title>2</title>
<ellipse fill="none" stroke="black" cx="446" cy="-130" rx="18" ry="18"/>
<text text-anchor="middle" x="446" y="-126.3" font-family="Times,serif" font-size="14.00">2</text>
</g>
<!-- 4&#45;&gt;2 -->
<g id="edge2" class="edge">
<title>4&#45;&gt;2</title>
<path fill="none" stroke="black" d="M25.47,-119.77C36.43,-145.06 61.24,-190 99,-190 99,-190 99,-190 365,-190 390.96,-190 413.89,-169.53 428.47,-152.5"/>
<polygon fill="black" stroke="black" points="431.36,-154.5 434.93,-144.52 425.92,-150.09 431.36,-154.5"/>
<text text-anchor="middle" x="232" y="-193.8" font-family="Times,serif" font-size="14.00">8</text>
</g>
<!-- 5&#45;&gt;4 -->
<g id="edge3" class="edge">
<title>5&#45;&gt;4</title>
<path fill="none" stroke="black" d="M85.09,-93.83C78.95,-89.95 71.44,-85.98 64,-84 56.45,-81.99 48.51,-83.89 41.43,-87.15"/>
<polygon fill="black" stroke="black" points="39.45,-84.24 32.44,-92.18 42.87,-90.35 39.45,-84.24"/>
<text text-anchor="middle" x="59" y="-87.8" font-family="Times,serif" font-size="14.00">8</text>
</g>
<!-- 1 -->
<g id="node4" class="node">
<title>1</title>
<ellipse fill="none" stroke="black" cx="191" cy="-84" rx="18" ry="18"/>
<text text-anchor="middle" x="191" y="-80.3" font-family="Times,serif" font-size="14.00">1</text>
</g>
<!-- 5&#45;&gt;1 -->
<g id="edge4" class="edge">
<title>5&#45;&gt;1</title>
<path fill="none" stroke="black" d="M118.28,-104.27C129,-104.05 142.98,-103.09 155,-100 158.47,-99.11 162.02,-97.89 165.47,-96.52"/>
<polygon fill="black" stroke="black" points="167.03,-99.65 174.75,-92.4 164.19,-93.25 167.03,-99.65"/>
<text text-anchor="middle" x="145.5" y="-106.8" font-family="Times,serif" font-size="14.00">7</text>
</g>
<!-- 2&#45;&gt;4 -->
<g id="edge5" class="edge">
<title>2&#45;&gt;4</title>
<path fill="none" stroke="black" d="M429.11,-137.08C413.22,-143.51 387.9,-152 365,-152 99,-152 99,-152 99,-152 75.64,-152 53.34,-136.62 38.25,-123.09"/>
<polygon fill="black" stroke="black" points="40.31,-120.22 30.64,-115.87 35.49,-125.3 40.31,-120.22"/>
<text text-anchor="middle" x="232" y="-155.8" font-family="Times,serif" font-size="14.00">4</text>
</g>
<!-- 0 -->
<g id="node5" class="node">
<title>0</title>
<ellipse fill="none" stroke="black" cx="273" cy="-97" rx="18" ry="18"/>
<text text-anchor="middle" x="273" y="-93.3" font-family="Times,serif" font-size="14.00">0</text>
</g>
<!-- 2&#45;&gt;0 -->
<g id="edge6" class="edge">
<title>2&#45;&gt;0</title>
<path fill="none" stroke="black" d="M428.05,-126.73C398.39,-121.01 336.87,-109.13 301.2,-102.25"/>
<polygon fill="black" stroke="black" points="301.5,-98.74 291.02,-100.28 300.18,-105.62 301.5,-98.74"/>
<text text-anchor="middle" x="364" y="-120.8" font-family="Times,serif" font-size="14.00">8</text>
</g>
<!-- 1&#45;&gt;4 -->
<g id="edge11" class="edge">
<title>1&#45;&gt;4</title>
<path fill="none" stroke="black" d="M174.45,-76.24C153.32,-66.73 114.43,-52.93 82,-62 66.58,-66.32 51.46,-75.91 39.91,-84.74"/>
<polygon fill="black" stroke="black" points="37.42,-82.25 31.82,-91.24 41.81,-87.71 37.42,-82.25"/>
<text text-anchor="middle" x="100" y="-65.8" font-family="Times,serif" font-size="14.00">1</text>
</g>
<!-- 1&#45;&gt;5 -->
<g id="edge13" class="edge">
<title>1&#45;&gt;5</title>
<path fill="none" stroke="black" d="M173.11,-80.15C162.28,-78.38 148.05,-77.39 136,-81 131.49,-82.35 127.02,-84.49 122.86,-86.93"/>
<polygon fill="black" stroke="black" points="120.76,-84.13 114.36,-92.57 124.63,-89.96 120.76,-84.13"/>
<text text-anchor="middle" x="145.5" y="-84.8" font-family="Times,serif" font-size="14.00">14</text>
</g>
<!-- 1&#45;&gt;0 -->
<g id="edge12" class="edge">
<title>1&#45;&gt;0</title>
<path fill="none" stroke="black" d="M208.97,-86.76C219.47,-88.46 233.18,-90.69 245.13,-92.63"/>
<polygon fill="black" stroke="black" points="244.63,-96.1 255.06,-94.25 245.75,-89.19 244.63,-96.1"/>
<text text-anchor="middle" x="232" y="-94.8" font-family="Times,serif" font-size="14.00">7</text>
</g>
<!-- 3 -->
<g id="node6" class="node">
<title>3</title>
<ellipse fill="none" stroke="black" cx="364" cy="-51" rx="18" ry="18"/>
<text text-anchor="middle" x="364" y="-47.3" font-family="Times,serif" font-size="14.00">3</text>
</g>
<!-- 0&#45;&gt;3 -->
<g id="edge7" class="edge">
<title>0&#45;&gt;3</title>
<path fill="none" stroke="black" d="M289.5,-88.99C303.03,-82 322.89,-71.73 338.56,-63.63"/>
<polygon fill="black" stroke="black" points="340.4,-66.62 347.68,-58.92 337.18,-60.4 340.4,-66.62"/>
<text text-anchor="middle" x="318.5" y="-81.8" font-family="Times,serif" font-size="14.00">10</text>
</g>
<!-- 3&#45;&gt;4 -->
<g id="edge8" class="edge">
<title>3&#45;&gt;4</title>
<path fill="none" stroke="black" d="M350.72,-38.39C334.62,-23.29 304.81,0 274,0 99,0 99,0 99,0 60.55,0 37.91,-45.32 27.02,-75.83"/>
<polygon fill="black" stroke="black" points="23.63,-74.93 23.78,-85.53 30.27,-77.16 23.63,-74.93"/>
<text text-anchor="middle" x="191" y="-3.8" font-family="Times,serif" font-size="14.00">5</text>
</g>
<!-- 3&#45;&gt;2 -->
<g id="edge9" class="edge">
<title>3&#45;&gt;2</title>
<path fill="none" stroke="black" d="M380.22,-58.83C389.47,-64.05 401.16,-71.49 410,-80 417.82,-87.53 424.98,-97.03 430.77,-105.73"/>
<polygon fill="black" stroke="black" points="427.95,-107.82 436.26,-114.39 433.86,-104.07 427.95,-107.82"/>
<text text-anchor="middle" x="405" y="-83.8" font-family="Times,serif" font-size="14.00">2</text>
</g>
<!-- 3&#45;&gt;1 -->
<g id="edge10" class="edge">
<title>3&#45;&gt;1</title>
<path fill="none" stroke="black" d="M345.89,-49.59C324.35,-48.28 286.39,-47.51 255,-55 241.46,-58.23 227.3,-64.46 215.84,-70.32"/>
<polygon fill="black" stroke="black" points="214.1,-67.28 206.92,-75.08 217.39,-73.46 214.1,-67.28"/>
<text text-anchor="middle" x="273" y="-58.8" font-family="Times,serif" font-size="14.00">11</text>
</g>
</g>
</svg>
