<?xml version="1.0" encoding="UTF-8" standalone="no"?>
<!DOCTYPE svg PUBLIC "-//W3C//DTD SVG 1.1//EN"
 "http://www.w3.org/Graphics/SVG/1.1/DTD/svg11.dtd">
<!-- Generated by graphviz version 2.42.3 (20191010.1750)
 -->
<!-- Title: finite_state_machine Pages: 1 -->
<svg width="490pt" height="218pt"
 viewBox="0.00 0.00 490.00 218.00" xmlns="http://www.w3.org/2000/svg" xmlns:xlink="http://www.w3.org/1999/xlink">
<g id="graph0" class="graph" transform="scale(1 1) rotate(0) translate(4 214)">
<title>finite_state_machine</title>
<polygon fill="white" stroke="transparent" points="-4,4 -4,-214 486,-214 486,4 -4,4"/>
<!-- 1 -->
<g id="node1" class="node">
<title>1</title>
<ellipse fill="none" stroke="black" cx="18" cy="-109" rx="18" ry="18"/>
<text text-anchor="middle" x="18" y="-105.3" font-family="Times,serif" font-size="14.00">1</text>
</g>
<!-- 5 -->
<g id="node2" class="node">
<title>5</title>
<ellipse fill="none" stroke="black" cx="464" cy="-109" rx="18" ry="18"/>
<text text-anchor="middle" x="464" y="-105.3" font-family="Times,serif" font-size="14.00">5</text>
</g>
<!-- 1&#45;&gt;5 -->
<g id="edge1" class="edge">
<title>1&#45;&gt;5</title>
<path fill="none" stroke="black" d="M25.52,-125.58C36.57,-150.57 61.48,-195 99,-195 99,-195 99,-195 374,-195 409.4,-195 436.1,-159.38 450.63,-133.98"/>
<polygon fill="black" stroke="black" points="453.72,-135.63 455.43,-125.18 447.58,-132.28 453.72,-135.63"/>
<text text-anchor="middle" x="236.5" y="-198.8" font-family="Times,serif" font-size="14.00">14</text>
</g>
<!-- 0 -->
<g id="node3" class="node">
<title>0</title>
<ellipse fill="none" stroke="black" cx="100" cy="-55" rx="18" ry="18"/>
<text text-anchor="middle" x="100" y="-51.3" font-family="Times,serif" font-size="14.00">0</text>
</g>
<!-- 1&#45;&gt;0 -->
<g id="edge2" class="edge">
<title>1&#45;&gt;0</title>
<path fill="none" stroke="black" d="M31.84,-97.38C38.28,-91.83 46.31,-85.25 54,-80 60.49,-75.56 67.84,-71.22 74.69,-67.44"/>
<polygon fill="black" stroke="black" points="76.43,-70.47 83.58,-62.66 73.12,-64.3 76.43,-70.47"/>
<text text-anchor="middle" x="59" y="-83.8" font-family="Times,serif" font-size="14.00">7</text>
</g>
<!-- 4 -->
<g id="node4" class="node">
<title>4</title>
<ellipse fill="none" stroke="black" cx="373" cy="-109" rx="18" ry="18"/>
<text text-anchor="middle" x="373" y="-105.3" font-family="Times,serif" font-size="14.00">4</text>
</g>
<!-- 1&#45;&gt;4 -->
<g id="edge3" class="edge">
<title>1&#45;&gt;4</title>
<path fill="none" stroke="black" d="M31.74,-120.98C46.65,-133.7 72.67,-152 99,-152 99,-152 99,-152 283,-152 307.99,-152 333.35,-138.09 350.57,-126.09"/>
<polygon fill="black" stroke="black" points="352.78,-128.8 358.79,-120.07 348.65,-123.16 352.78,-128.8"/>
<text text-anchor="middle" x="191" y="-155.8" font-family="Times,serif" font-size="14.00">1</text>
</g>
<!-- 5&#45;&gt;1 -->
<g id="edge4" class="edge">
<title>5&#45;&gt;1</title>
<path fill="none" stroke="black" d="M457.89,-91.97C447.52,-61.31 420.91,0 374,0 99,0 99,0 99,0 58.54,0 36.3,-49.4 26.08,-81.69"/>
<polygon fill="black" stroke="black" points="22.67,-80.9 23.18,-91.49 29.38,-82.89 22.67,-80.9"/>
<text text-anchor="middle" x="236.5" y="-3.8" font-family="Times,serif" font-size="14.00">7</text>
</g>
<!-- 3 -->
<g id="node5" class="node">
<title>3</title>
<ellipse fill="none" stroke="black" cx="191" cy="-97" rx="18" ry="18"/>
<text text-anchor="middle" x="191" y="-93.3" font-family="Times,serif" font-size="14.00">3</text>
</g>
<!-- 0&#45;&gt;3 -->
<g id="edge5" class="edge">
<title>0&#45;&gt;3</title>
<path fill="none" stroke="black" d="M116.63,-62.14C127.43,-67.1 142.12,-73.89 155,-80 158.27,-81.55 161.71,-83.2 165.1,-84.84"/>
<polygon fill="black" stroke="black" points="163.82,-88.11 174.35,-89.32 166.88,-81.81 163.82,-88.11"/>
<text text-anchor="middle" x="145.5" y="-83.8" font-family="Times,serif" font-size="14.00">10</text>
</g>
<!-- 2 -->
<g id="node6" class="node">
<title>2</title>
<ellipse fill="none" stroke="black" cx="282" cy="-55" rx="18" ry="18"/>
<text text-anchor="middle" x="282" y="-51.3" font-family="Times,serif" font-size="14.00">2</text>
</g>
<!-- 0&#45;&gt;2 -->
<g id="edge6" class="edge">
<title>0&#45;&gt;2</title>
<path fill="none" stroke="black" d="M118.26,-55C149.57,-55 215.98,-55 253.57,-55"/>
<polygon fill="black" stroke="black" points="253.79,-58.5 263.79,-55 253.79,-51.5 253.79,-58.5"/>
<text text-anchor="middle" x="191" y="-58.8" font-family="Times,serif" font-size="14.00">8</text>
</g>
<!-- 4&#45;&gt;5 -->
<g id="edge7" class="edge">
<title>4&#45;&gt;5</title>
<path fill="none" stroke="black" d="M391.16,-109C403.72,-109 421.02,-109 435.5,-109"/>
<polygon fill="black" stroke="black" points="435.89,-112.5 445.89,-109 435.89,-105.5 435.89,-112.5"/>
<text text-anchor="middle" x="418.5" y="-112.8" font-family="Times,serif" font-size="14.00">14</text>
</g>
<!-- 3&#45;&gt;1 -->
<g id="edge8" class="edge">
<title>3&#45;&gt;1</title>
<path fill="none" stroke="black" d="M172.79,-98.21C143.03,-100.3 81.73,-104.6 46.17,-107.09"/>
<polygon fill="black" stroke="black" points="45.75,-103.61 36.02,-107.81 46.24,-110.6 45.75,-103.61"/>
<text text-anchor="middle" x="100" y="-107.8" font-family="Times,serif" font-size="14.00">11</text>
</g>
<!-- 3&#45;&gt;4 -->
<g id="edge10" class="edge">
<title>3&#45;&gt;4</title>
<path fill="none" stroke="black" d="M209.26,-98.15C240.57,-100.24 306.98,-104.67 344.57,-107.17"/>
<polygon fill="black" stroke="black" points="344.58,-110.68 354.79,-107.85 345.05,-103.7 344.58,-110.68"/>
<text text-anchor="middle" x="282" y="-107.8" font-family="Times,serif" font-size="14.00">5</text>
</g>
<!-- 3&#45;&gt;2 -->
<g id="edge9" class="edge">
<title>3&#45;&gt;2</title>
<path fill="none" stroke="black" d="M207.65,-89.32C213.69,-86.38 220.65,-83.01 227,-80 236.46,-75.51 246.89,-70.66 256.05,-66.44"/>
<polygon fill="black" stroke="black" points="257.75,-69.51 265.37,-62.14 254.82,-63.15 257.75,-69.51"/>
<text text-anchor="middle" x="236.5" y="-83.8" font-family="Times,serif" font-size="14.00">2</text>
</g>
<!-- 2&#45;&gt;4 -->
<g id="edge11" class="edge">
<title>2&#45;&gt;4</title>
<path fill="none" stroke="black" d="M299.16,-61.19C310.19,-65.72 324.94,-72.39 337,-80 341.92,-83.1 346.91,-86.83 351.52,-90.55"/>
<polygon fill="black" stroke="black" points="349.42,-93.36 359.32,-97.14 353.94,-88.01 349.42,-93.36"/>
<text text-anchor="middle" x="327.5" y="-83.8" font-family="Times,serif" font-size="14.00">12</text>
</g>
</g>
</svg>
