<?xml version="1.0" encoding="UTF-8" standalone="no"?>
<!DOCTYPE svg PUBLIC "-//W3C//DTD SVG 1.1//EN"
 "http://www.w3.org/Graphics/SVG/1.1/DTD/svg11.dtd">
<!-- Generated by graphviz version 2.42.3 (20191010.1750)
 -->
<!-- Title: finite_state_machine Pages: 1 -->
<svg width="408pt" height="160pt"
 viewBox="0.00 0.00 408.00 160.00" xmlns="http://www.w3.org/2000/svg" xmlns:xlink="http://www.w3.org/1999/xlink">
<g id="graph0" class="graph" transform="scale(1 1) rotate(0) translate(4 156)">
<title>finite_state_machine</title>
<polygon fill="white" stroke="transparent" points="-4,4 -4,-156 404,-156 404,4 -4,4"/>
<!-- 0 -->
<g id="node1" class="node">
<title>0</title>
<ellipse fill="none" stroke="black" cx="18" cy="-77" rx="18" ry="18"/>
<text text-anchor="middle" x="18" y="-73.3" font-family="Times,serif" font-size="14.00">0</text>
</g>
<!-- 2 -->
<g id="node2" class="node">
<title>2</title>
<ellipse fill="none" stroke="black" cx="200" cy="-134" rx="18" ry="18"/>
<text text-anchor="middle" x="200" y="-130.3" font-family="Times,serif" font-size="14.00">2</text>
</g>
<!-- 0&#45;&gt;2 -->
<g id="edge1" class="edge">
<title>0&#45;&gt;2</title>
<path fill="none" stroke="black" d="M34.04,-85.93C40.12,-89.34 47.27,-93.09 54,-96 93.09,-112.89 103.56,-116.18 145,-126 153.65,-128.05 163.22,-129.67 171.87,-130.91"/>
<polygon fill="black" stroke="black" points="171.46,-134.38 181.83,-132.22 172.38,-127.44 171.46,-134.38"/>
<text text-anchor="middle" x="109" y="-124.8" font-family="Times,serif" font-size="14.00">8</text>
</g>
<!-- 3 -->
<g id="node3" class="node">
<title>3</title>
<ellipse fill="none" stroke="black" cx="109" cy="-77" rx="18" ry="18"/>
<text text-anchor="middle" x="109" y="-73.3" font-family="Times,serif" font-size="14.00">3</text>
</g>
<!-- 0&#45;&gt;3 -->
<g id="edge2" class="edge">
<title>0&#45;&gt;3</title>
<path fill="none" stroke="black" d="M36.16,-77C48.72,-77 66.02,-77 80.5,-77"/>
<polygon fill="black" stroke="black" points="80.89,-80.5 90.89,-77 80.89,-73.5 80.89,-80.5"/>
<text text-anchor="middle" x="63.5" y="-80.8" font-family="Times,serif" font-size="14.00">10</text>
</g>
<!-- 1 -->
<g id="node4" class="node">
<title>1</title>
<ellipse fill="none" stroke="black" cx="200" cy="-18" rx="18" ry="18"/>
<text text-anchor="middle" x="200" y="-14.3" font-family="Times,serif" font-size="14.00">1</text>
</g>
<!-- 0&#45;&gt;1 -->
<g id="edge3" class="edge">
<title>0&#45;&gt;1</title>
<path fill="none" stroke="black" d="M32.84,-66.8C46.8,-57.05 69.32,-42.72 91,-35 117.43,-25.59 149.34,-21.38 171.6,-19.5"/>
<polygon fill="black" stroke="black" points="171.97,-22.98 181.68,-18.75 171.45,-16 171.97,-22.98"/>
<text text-anchor="middle" x="109" y="-38.8" font-family="Times,serif" font-size="14.00">7</text>
</g>
<!-- 4 -->
<g id="node5" class="node">
<title>4</title>
<ellipse fill="none" stroke="black" cx="291" cy="-77" rx="18" ry="18"/>
<text text-anchor="middle" x="291" y="-73.3" font-family="Times,serif" font-size="14.00">4</text>
</g>
<!-- 2&#45;&gt;4 -->
<g id="edge4" class="edge">
<title>2&#45;&gt;4</title>
<path fill="none" stroke="black" d="M215.6,-124.31C221.87,-120.18 229.27,-115.33 236,-111 246.03,-104.55 257.16,-97.52 266.71,-91.53"/>
<polygon fill="black" stroke="black" points="268.66,-94.43 275.28,-86.16 264.95,-88.5 268.66,-94.43"/>
<text text-anchor="middle" x="245.5" y="-114.8" font-family="Times,serif" font-size="14.00">12</text>
</g>
<!-- 3&#45;&gt;2 -->
<g id="edge6" class="edge">
<title>3&#45;&gt;2</title>
<path fill="none" stroke="black" d="M124.72,-86.16C135.6,-92.96 150.77,-102.49 164,-111 167.89,-113.5 172.01,-116.18 176,-118.79"/>
<polygon fill="black" stroke="black" points="174.12,-121.75 184.4,-124.31 177.96,-115.9 174.12,-121.75"/>
<text text-anchor="middle" x="154.5" y="-114.8" font-family="Times,serif" font-size="14.00">2</text>
</g>
<!-- 3&#45;&gt;1 -->
<g id="edge7" class="edge">
<title>3&#45;&gt;1</title>
<path fill="none" stroke="black" d="M122.84,-65.38C129.28,-59.83 137.31,-53.25 145,-48 154.3,-41.65 165.05,-35.46 174.5,-30.37"/>
<polygon fill="black" stroke="black" points="176.2,-33.43 183.42,-25.68 172.94,-27.24 176.2,-33.43"/>
<text text-anchor="middle" x="154.5" y="-51.8" font-family="Times,serif" font-size="14.00">11</text>
</g>
<!-- 3&#45;&gt;4 -->
<g id="edge5" class="edge">
<title>3&#45;&gt;4</title>
<path fill="none" stroke="black" d="M127.26,-77C158.57,-77 224.98,-77 262.57,-77"/>
<polygon fill="black" stroke="black" points="262.79,-80.5 272.79,-77 262.79,-73.5 262.79,-80.5"/>
<text text-anchor="middle" x="200" y="-80.8" font-family="Times,serif" font-size="14.00">5</text>
</g>
<!-- 1&#45;&gt;4 -->
<g id="edge8" class="edge">
<title>1&#45;&gt;4</title>
<path fill="none" stroke="black" d="M216.58,-25.68C227.62,-31.35 242.6,-39.53 255,-48 259.8,-51.28 264.75,-55.08 269.35,-58.83"/>
<polygon fill="black" stroke="black" points="267.25,-61.63 277.16,-65.38 271.75,-56.27 267.25,-61.63"/>
<text text-anchor="middle" x="245.5" y="-51.8" font-family="Times,serif" font-size="14.00">1</text>
</g>
<!-- 5 -->
<g id="node6" class="node">
<title>5</title>
<ellipse fill="none" stroke="black" cx="382" cy="-30" rx="18" ry="18"/>
<text text-anchor="middle" x="382" y="-26.3" font-family="Times,serif" font-size="14.00">5</text>
</g>
<!-- 1&#45;&gt;5 -->
<g id="edge9" class="edge">
<title>1&#45;&gt;5</title>
<path fill="none" stroke="black" d="M218.26,-19.15C249.57,-21.24 315.98,-25.67 353.57,-28.17"/>
<polygon fill="black" stroke="black" points="353.58,-31.68 363.79,-28.85 354.05,-24.7 353.58,-31.68"/>
<text text-anchor="middle" x="291" y="-29.8" font-family="Times,serif" font-size="14.00">21</text>
</g>
<!-- 4&#45;&gt;2 -->
<g id="edge11" class="edge">
<title>4&#45;&gt;2</title>
<path fill="none" stroke="black" d="M282.65,-93.36C276.78,-104.43 267.49,-118.36 255,-126 247.1,-130.83 237.36,-133.14 228.33,-134.15"/>
<polygon fill="black" stroke="black" points="227.97,-130.66 218.22,-134.81 228.43,-137.65 227.97,-130.66"/>
<text text-anchor="middle" x="245.5" y="-135.8" font-family="Times,serif" font-size="14.00">10</text>
</g>
<!-- 4&#45;&gt;5 -->
<g id="edge10" class="edge">
<title>4&#45;&gt;5</title>
<path fill="none" stroke="black" d="M307.5,-68.81C321.03,-61.67 340.89,-51.18 356.56,-42.91"/>
<polygon fill="black" stroke="black" points="358.47,-45.86 365.68,-38.09 355.2,-39.67 358.47,-45.86"/>
<text text-anchor="middle" x="336.5" y="-60.8" font-family="Times,serif" font-size="14.00">14</text>
</g>
</g>
</svg>
