<?xml version="1.0" encoding="UTF-8" standalone="no"?>
<!DOCTYPE svg PUBLIC "-//W3C//DTD SVG 1.1//EN"
 "http://www.w3.org/Graphics/SVG/1.1/DTD/svg11.dtd">
<!-- Generated by graphviz version 2.42.3 (20191010.1750)
 -->
<!-- Title: finite_state_machine Pages: 1 -->
<svg width="226pt" height="152pt"
 viewBox="0.00 0.00 226.00 152.00" xmlns="http://www.w3.org/2000/svg" xmlns:xlink="http://www.w3.org/1999/xlink">
<g id="graph0" class="graph" transform="scale(1 1) rotate(0) translate(4 148)">
<title>finite_state_machine</title>
<polygon fill="white" stroke="transparent" points="-4,4 -4,-148 222,-148 222,4 -4,4"/>
<!-- 1 -->
<g id="node1" class="node">
<title>1</title>
<ellipse fill="none" stroke="black" cx="109" cy="-72" rx="18" ry="18"/>
<text text-anchor="middle" x="109" y="-68.3" font-family="Times,serif" font-size="14.00">1</text>
</g>
<!-- 5 -->
<g id="node2" class="node">
<title>5</title>
<ellipse fill="none" stroke="black" cx="200" cy="-126" rx="18" ry="18"/>
<text text-anchor="middle" x="200" y="-122.3" font-family="Times,serif" font-size="14.00">5</text>
</g>
<!-- 1&#45;&gt;5 -->
<g id="edge1" class="edge">
<title>1&#45;&gt;5</title>
<path fill="none" stroke="black" d="M124.7,-80.92C138.48,-89.28 159.33,-101.93 175.43,-111.7"/>
<polygon fill="black" stroke="black" points="173.92,-114.87 184.28,-117.07 177.55,-108.89 173.92,-114.87"/>
<text text-anchor="middle" x="154.5" y="-106.8" font-family="Times,serif" font-size="14.00">21</text>
</g>
<!-- 4 -->
<g id="node3" class="node">
<title>4</title>
<ellipse fill="none" stroke="black" cx="200" cy="-72" rx="18" ry="18"/>
<text text-anchor="middle" x="200" y="-68.3" font-family="Times,serif" font-size="14.00">4</text>
</g>
<!-- 1&#45;&gt;4 -->
<g id="edge2" class="edge">
<title>1&#45;&gt;4</title>
<path fill="none" stroke="black" d="M127.16,-72C139.72,-72 157.02,-72 171.5,-72"/>
<polygon fill="black" stroke="black" points="171.89,-75.5 181.89,-72 171.89,-68.5 171.89,-75.5"/>
<text text-anchor="middle" x="154.5" y="-75.8" font-family="Times,serif" font-size="14.00">1</text>
</g>
<!-- 0 -->
<g id="node4" class="node">
<title>0</title>
<ellipse fill="none" stroke="black" cx="18" cy="-45" rx="18" ry="18"/>
<text text-anchor="middle" x="18" y="-41.3" font-family="Times,serif" font-size="14.00">0</text>
</g>
<!-- 0&#45;&gt;1 -->
<g id="edge3" class="edge">
<title>0&#45;&gt;1</title>
<path fill="none" stroke="black" d="M35.32,-49.95C48.29,-53.89 66.68,-59.46 81.71,-64.03"/>
<polygon fill="black" stroke="black" points="80.89,-67.43 91.48,-66.99 82.92,-60.74 80.89,-67.43"/>
<text text-anchor="middle" x="63.5" y="-63.8" font-family="Times,serif" font-size="14.00">7</text>
</g>
<!-- 3 -->
<g id="node5" class="node">
<title>3</title>
<ellipse fill="none" stroke="black" cx="109" cy="-18" rx="18" ry="18"/>
<text text-anchor="middle" x="109" y="-14.3" font-family="Times,serif" font-size="14.00">3</text>
</g>
<!-- 0&#45;&gt;3 -->
<g id="edge4" class="edge">
<title>0&#45;&gt;3</title>
<path fill="none" stroke="black" d="M35.32,-40.05C48.29,-36.11 66.68,-30.54 81.71,-25.97"/>
<polygon fill="black" stroke="black" points="82.92,-29.26 91.48,-23.01 80.89,-22.57 82.92,-29.26"/>
<text text-anchor="middle" x="63.5" y="-36.8" font-family="Times,serif" font-size="14.00">10</text>
</g>
<!-- 2 -->
<g id="node6" class="node">
<title>2</title>
<ellipse fill="none" stroke="black" cx="200" cy="-18" rx="18" ry="18"/>
<text text-anchor="middle" x="200" y="-14.3" font-family="Times,serif" font-size="14.00">2</text>
</g>
<!-- 3&#45;&gt;2 -->
<g id="edge5" class="edge">
<title>3&#45;&gt;2</title>
<path fill="none" stroke="black" d="M127.16,-18C139.72,-18 157.02,-18 171.5,-18"/>
<polygon fill="black" stroke="black" points="171.89,-21.5 181.89,-18 171.89,-14.5 171.89,-21.5"/>
<text text-anchor="middle" x="154.5" y="-21.8" font-family="Times,serif" font-size="14.00">2</text>
</g>
</g>
</svg>
